# xmcd CD database file
#
# Track frame offsets:
#	150
#	21650
#	40142
#	58807
#	78012
#	96675
#	115925
#	134182
#	151587
#	171475
#
# Disc length: 2521 seconds
#
# Revision: 2
# Processed by: cddbd v1.5.2PL0 Copyright (c) Steve Scherf et al.
# Submitted via: CDex 1.70beta2
#
DISCID=8c09d70a
DTITLE=Richard Cocciante - L'Instant Présent
DYEAR=1995
DGENRE=
TTITLE0=L'Instant Présent
TTITLE1=Notre Histoire
TTITLE2=H.L.M. (Harry loves Mary)
TTITLE3=Oublie comment j'm'apelle
TTITLE4=Ces moments-la
TTITLE5=Mal
TTITLE6=Plus chaud sous la peau
TTITLE7=Vacances au bord de la mer noire
TTITLE8=l'eternité ne dure jamais
TTITLE9=Amoureux
EXTD=YEAR: 1995
EXTT0=
EXTT1=
EXTT2=
EXTT3=
EXTT4=
EXTT5=
EXTT6=
EXTT7=
EXTT8=
EXTT9=
PLAYORDER=
